<mxfile host="app.diagrams.net" agent="Mozilla/5.0 (Windows NT 10.0; Win64; x64) AppleWebKit/537.36 (KHTML, like Gecko) Chrome/127.0.0.0 Safari/537.36" version="24.7.8">
  <diagram name="Page-1" id="7mcct_nMjgWPXreTealT">
    <mxGraphModel dx="1000" dy="538" grid="1" gridSize="10" guides="1" tooltips="1" connect="1" arrows="1" fold="1" page="1" pageScale="1" pageWidth="850" pageHeight="1100" math="0" shadow="0">
      <root>
        <mxCell id="0" />
        <mxCell id="1" parent="0" />
        <mxCell id="vww5mRkP5KJjSzzlBmqT-5" value="" style="rounded=0;whiteSpace=wrap;html=1;" vertex="1" parent="1">
          <mxGeometry x="205" y="630" width="440" height="240" as="geometry" />
        </mxCell>
        <mxCell id="vww5mRkP5KJjSzzlBmqT-1" value="admin kantor/opertator" style="shape=umlActor;verticalLabelPosition=bottom;verticalAlign=top;html=1;outlineConnect=0;" vertex="1" parent="1">
          <mxGeometry x="90" y="140" width="30" height="60" as="geometry" />
        </mxCell>
        <mxCell id="vww5mRkP5KJjSzzlBmqT-2" value="admin kebun" style="shape=umlActor;verticalLabelPosition=bottom;verticalAlign=top;html=1;outlineConnect=0;" vertex="1" parent="1">
          <mxGeometry x="710" y="150" width="30" height="60" as="geometry" />
        </mxCell>
        <mxCell id="vww5mRkP5KJjSzzlBmqT-6" value="Rencana&amp;nbsp; Pengembangan" style="text;strokeColor=none;fillColor=#82FFEE;align=left;verticalAlign=middle;spacingLeft=4;spacingRight=4;overflow=hidden;points=[[0,0.5],[1,0.5]];portConstraint=eastwest;rotatable=0;whiteSpace=wrap;html=1;" vertex="1" parent="1">
          <mxGeometry x="355" y="630" width="150" height="30" as="geometry" />
        </mxCell>
        <mxCell id="vww5mRkP5KJjSzzlBmqT-7" value="alat monitoring&lt;div&gt;(curah hujan, suhu, kelembaban)&lt;/div&gt;" style="shape=umlActor;verticalLabelPosition=bottom;verticalAlign=top;html=1;outlineConnect=0;" vertex="1" parent="1">
          <mxGeometry x="700" y="695" width="20" height="40" as="geometry" />
        </mxCell>
        <mxCell id="vww5mRkP5KJjSzzlBmqT-8" value="menambahkan&amp;nbsp;&lt;div&gt;admin kebun&lt;/div&gt;" style="ellipse;whiteSpace=wrap;html=1;" vertex="1" parent="1">
          <mxGeometry x="350" y="415" width="120" height="50" as="geometry" />
        </mxCell>
        <mxCell id="vww5mRkP5KJjSzzlBmqT-9" value="kelola data&lt;div&gt;admin kebun&lt;/div&gt;" style="ellipse;whiteSpace=wrap;html=1;" vertex="1" parent="1">
          <mxGeometry x="365" y="60" width="120" height="50" as="geometry" />
        </mxCell>
        <mxCell id="vww5mRkP5KJjSzzlBmqT-10" value="pengunjung/masyarakat" style="shape=umlActor;verticalLabelPosition=bottom;verticalAlign=top;html=1;outlineConnect=0;" vertex="1" parent="1">
          <mxGeometry x="95" y="420" width="20" height="40" as="geometry" />
        </mxCell>
        <mxCell id="vww5mRkP5KJjSzzlBmqT-13" value="login&lt;div&gt;admin kebun&lt;/div&gt;" style="ellipse;whiteSpace=wrap;html=1;" vertex="1" parent="1">
          <mxGeometry x="480" y="330" width="120" height="50" as="geometry" />
        </mxCell>
        <mxCell id="vww5mRkP5KJjSzzlBmqT-14" value="" style="endArrow=none;html=1;rounded=0;entryX=1;entryY=0.5;entryDx=0;entryDy=0;endFill=0;" edge="1" parent="1" source="vww5mRkP5KJjSzzlBmqT-2" target="vww5mRkP5KJjSzzlBmqT-13">
          <mxGeometry width="50" height="50" relative="1" as="geometry">
            <mxPoint x="380" y="400" as="sourcePoint" />
            <mxPoint x="430" y="350" as="targetPoint" />
          </mxGeometry>
        </mxCell>
        <mxCell id="vww5mRkP5KJjSzzlBmqT-15" value="" style="endArrow=none;html=1;rounded=0;entryX=0;entryY=0.5;entryDx=0;entryDy=0;endFill=0;" edge="1" parent="1" source="vww5mRkP5KJjSzzlBmqT-1" target="vww5mRkP5KJjSzzlBmqT-8">
          <mxGeometry width="50" height="50" relative="1" as="geometry">
            <mxPoint x="380" y="400" as="sourcePoint" />
            <mxPoint x="340" y="390" as="targetPoint" />
          </mxGeometry>
        </mxCell>
        <mxCell id="vww5mRkP5KJjSzzlBmqT-17" value="" style="endArrow=classic;html=1;rounded=0;entryX=0.96;entryY=0.21;entryDx=0;entryDy=0;dashed=1;exitX=0.452;exitY=0.959;exitDx=0;exitDy=0;exitPerimeter=0;entryPerimeter=0;" edge="1" parent="1" source="vww5mRkP5KJjSzzlBmqT-13" target="vww5mRkP5KJjSzzlBmqT-8">
          <mxGeometry width="50" height="50" relative="1" as="geometry">
            <mxPoint x="380" y="410" as="sourcePoint" />
            <mxPoint x="430" y="360" as="targetPoint" />
          </mxGeometry>
        </mxCell>
        <mxCell id="vww5mRkP5KJjSzzlBmqT-18" value="&amp;lt;&amp;lt;include&amp;gt;&amp;gt;" style="text;strokeColor=none;fillColor=none;align=left;verticalAlign=middle;spacingLeft=4;spacingRight=4;overflow=hidden;points=[[0,0.5],[1,0.5]];portConstraint=eastwest;rotatable=0;whiteSpace=wrap;html=1;" vertex="1" parent="1">
          <mxGeometry x="490" y="385" width="80" height="30" as="geometry" />
        </mxCell>
        <mxCell id="vww5mRkP5KJjSzzlBmqT-19" value="" style="endArrow=none;html=1;rounded=0;entryX=1;entryY=0.5;entryDx=0;entryDy=0;strokeColor=default;curved=0;startArrow=none;startFill=0;endFill=0;" edge="1" parent="1" source="vww5mRkP5KJjSzzlBmqT-2" target="vww5mRkP5KJjSzzlBmqT-9">
          <mxGeometry width="50" height="50" relative="1" as="geometry">
            <mxPoint x="720" y="197" as="sourcePoint" />
            <mxPoint x="480" y="315" as="targetPoint" />
          </mxGeometry>
        </mxCell>
        <mxCell id="vww5mRkP5KJjSzzlBmqT-21" value="kelola info&lt;div&gt;dashboard&lt;/div&gt;" style="ellipse;whiteSpace=wrap;html=1;" vertex="1" parent="1">
          <mxGeometry x="220" y="40" width="120" height="50" as="geometry" />
        </mxCell>
        <mxCell id="vww5mRkP5KJjSzzlBmqT-22" value="" style="endArrow=none;html=1;rounded=0;entryX=0;entryY=0.5;entryDx=0;entryDy=0;" edge="1" parent="1" source="vww5mRkP5KJjSzzlBmqT-1" target="vww5mRkP5KJjSzzlBmqT-9">
          <mxGeometry width="50" height="50" relative="1" as="geometry">
            <mxPoint x="390" y="220" as="sourcePoint" />
            <mxPoint x="440" y="170" as="targetPoint" />
          </mxGeometry>
        </mxCell>
        <mxCell id="vww5mRkP5KJjSzzlBmqT-23" value="kelola data&lt;div&gt;bibit&lt;/div&gt;" style="ellipse;whiteSpace=wrap;html=1;" vertex="1" parent="1">
          <mxGeometry x="225" y="230" width="120" height="50" as="geometry" />
        </mxCell>
        <mxCell id="vww5mRkP5KJjSzzlBmqT-24" value="login&lt;div&gt;admin kantor&lt;/div&gt;" style="ellipse;whiteSpace=wrap;html=1;" vertex="1" parent="1">
          <mxGeometry x="300" y="300" width="120" height="50" as="geometry" />
        </mxCell>
        <mxCell id="vww5mRkP5KJjSzzlBmqT-25" value="&amp;lt;&amp;lt;include&amp;gt;&amp;gt;" style="text;strokeColor=none;fillColor=none;align=left;verticalAlign=middle;spacingLeft=4;spacingRight=4;overflow=hidden;points=[[0,0.5],[1,0.5]];portConstraint=eastwest;rotatable=0;whiteSpace=wrap;html=1;" vertex="1" parent="1">
          <mxGeometry x="363" y="370" width="80" height="30" as="geometry" />
        </mxCell>
        <mxCell id="vww5mRkP5KJjSzzlBmqT-26" value="" style="endArrow=classic;html=1;rounded=0;entryX=0.5;entryY=1;entryDx=0;entryDy=0;dashed=1;exitX=0.25;exitY=0;exitDx=0;exitDy=0;exitPerimeter=0;" edge="1" parent="1" source="vww5mRkP5KJjSzzlBmqT-8" target="vww5mRkP5KJjSzzlBmqT-24">
          <mxGeometry width="50" height="50" relative="1" as="geometry">
            <mxPoint x="544" y="368" as="sourcePoint" />
            <mxPoint x="475" y="471" as="targetPoint" />
          </mxGeometry>
        </mxCell>
        <mxCell id="vww5mRkP5KJjSzzlBmqT-27" value="" style="endArrow=none;html=1;rounded=0;entryX=0;entryY=0.5;entryDx=0;entryDy=0;" edge="1" parent="1" source="vww5mRkP5KJjSzzlBmqT-1" target="vww5mRkP5KJjSzzlBmqT-24">
          <mxGeometry width="50" height="50" relative="1" as="geometry">
            <mxPoint x="390" y="450" as="sourcePoint" />
            <mxPoint x="440" y="400" as="targetPoint" />
          </mxGeometry>
        </mxCell>
        <mxCell id="vww5mRkP5KJjSzzlBmqT-28" value="" style="endArrow=none;html=1;rounded=0;exitX=0;exitY=0.5;exitDx=0;exitDy=0;" edge="1" parent="1" source="vww5mRkP5KJjSzzlBmqT-23" target="vww5mRkP5KJjSzzlBmqT-1">
          <mxGeometry width="50" height="50" relative="1" as="geometry">
            <mxPoint x="390" y="270" as="sourcePoint" />
            <mxPoint x="120" y="180" as="targetPoint" />
          </mxGeometry>
        </mxCell>
        <mxCell id="vww5mRkP5KJjSzzlBmqT-29" value="penambahan&lt;div&gt;stok&amp;nbsp;&lt;span style=&quot;background-color: initial;&quot;&gt;bibit&lt;/span&gt;&lt;/div&gt;" style="ellipse;whiteSpace=wrap;html=1;" vertex="1" parent="1">
          <mxGeometry x="473.75" y="160" width="120" height="50" as="geometry" />
        </mxCell>
        <mxCell id="vww5mRkP5KJjSzzlBmqT-30" value="pengurangan&amp;nbsp;&lt;div&gt;stok&amp;nbsp;&lt;span style=&quot;background-color: initial;&quot;&gt;bibit&lt;/span&gt;&lt;/div&gt;" style="ellipse;whiteSpace=wrap;html=1;" vertex="1" parent="1">
          <mxGeometry x="440" y="230" width="120" height="50" as="geometry" />
        </mxCell>
        <mxCell id="vww5mRkP5KJjSzzlBmqT-31" value="update kondisi&amp;nbsp;&lt;div&gt;terkini kebun&lt;/div&gt;" style="ellipse;whiteSpace=wrap;html=1;" vertex="1" parent="1">
          <mxGeometry x="370" y="690" width="120" height="50" as="geometry" />
        </mxCell>
        <mxCell id="vww5mRkP5KJjSzzlBmqT-33" value="view info&lt;div&gt;kebun/benih&lt;/div&gt;&lt;div&gt;(dashboard)&lt;/div&gt;" style="ellipse;whiteSpace=wrap;html=1;" vertex="1" parent="1">
          <mxGeometry x="355" y="480" width="120" height="50" as="geometry" />
        </mxCell>
        <mxCell id="vww5mRkP5KJjSzzlBmqT-34" value="" style="endArrow=none;html=1;rounded=0;entryX=0;entryY=0.5;entryDx=0;entryDy=0;" edge="1" parent="1" source="vww5mRkP5KJjSzzlBmqT-10" target="vww5mRkP5KJjSzzlBmqT-33">
          <mxGeometry width="50" height="50" relative="1" as="geometry">
            <mxPoint x="390" y="460" as="sourcePoint" />
            <mxPoint x="440" y="410" as="targetPoint" />
          </mxGeometry>
        </mxCell>
        <mxCell id="vww5mRkP5KJjSzzlBmqT-35" value="" style="endArrow=none;html=1;rounded=0;exitX=1;exitY=0.5;exitDx=0;exitDy=0;" edge="1" parent="1" source="vww5mRkP5KJjSzzlBmqT-29" target="vww5mRkP5KJjSzzlBmqT-2">
          <mxGeometry width="50" height="50" relative="1" as="geometry">
            <mxPoint x="390" y="250" as="sourcePoint" />
            <mxPoint x="440" y="200" as="targetPoint" />
          </mxGeometry>
        </mxCell>
        <mxCell id="vww5mRkP5KJjSzzlBmqT-36" value="" style="endArrow=none;html=1;rounded=0;exitX=1;exitY=0.5;exitDx=0;exitDy=0;" edge="1" parent="1" source="vww5mRkP5KJjSzzlBmqT-30" target="vww5mRkP5KJjSzzlBmqT-2">
          <mxGeometry width="50" height="50" relative="1" as="geometry">
            <mxPoint x="540" y="205" as="sourcePoint" />
            <mxPoint x="720" y="191" as="targetPoint" />
          </mxGeometry>
        </mxCell>
        <mxCell id="vww5mRkP5KJjSzzlBmqT-37" value="" style="endArrow=classic;html=1;rounded=0;entryX=0;entryY=0.5;entryDx=0;entryDy=0;dashed=1;exitX=0.99;exitY=0.703;exitDx=0;exitDy=0;exitPerimeter=0;" edge="1" parent="1" source="vww5mRkP5KJjSzzlBmqT-23" target="vww5mRkP5KJjSzzlBmqT-30">
          <mxGeometry width="50" height="50" relative="1" as="geometry">
            <mxPoint x="390" y="460" as="sourcePoint" />
            <mxPoint x="370" y="380" as="targetPoint" />
          </mxGeometry>
        </mxCell>
        <mxCell id="vww5mRkP5KJjSzzlBmqT-38" value="" style="endArrow=classic;html=1;rounded=0;entryX=0;entryY=0.5;entryDx=0;entryDy=0;dashed=1;" edge="1" parent="1" source="vww5mRkP5KJjSzzlBmqT-23" target="vww5mRkP5KJjSzzlBmqT-29">
          <mxGeometry width="50" height="50" relative="1" as="geometry">
            <mxPoint x="340" y="230" as="sourcePoint" />
            <mxPoint x="466.34" y="184.63" as="targetPoint" />
          </mxGeometry>
        </mxCell>
        <mxCell id="vww5mRkP5KJjSzzlBmqT-39" value="&amp;lt;&amp;lt;extend&amp;gt;&amp;gt;" style="text;strokeColor=none;fillColor=none;align=left;verticalAlign=middle;spacingLeft=4;spacingRight=4;overflow=hidden;points=[[0,0.5],[1,0.5]];portConstraint=eastwest;rotatable=0;whiteSpace=wrap;html=1;" vertex="1" parent="1">
          <mxGeometry x="345" y="192" width="80" height="30" as="geometry" />
        </mxCell>
        <mxCell id="vww5mRkP5KJjSzzlBmqT-40" value="&amp;lt;&amp;lt;extend&amp;gt;&amp;gt;" style="text;strokeColor=none;fillColor=none;align=left;verticalAlign=middle;spacingLeft=4;spacingRight=4;overflow=hidden;points=[[0,0.5],[1,0.5]];portConstraint=eastwest;rotatable=0;whiteSpace=wrap;html=1;" vertex="1" parent="1">
          <mxGeometry x="350" y="236" width="80" height="30" as="geometry" />
        </mxCell>
        <mxCell id="vww5mRkP5KJjSzzlBmqT-41" value="" style="endArrow=none;html=1;rounded=0;entryX=0.5;entryY=0.5;entryDx=0;entryDy=0;entryPerimeter=0;exitX=1;exitY=0.5;exitDx=0;exitDy=0;" edge="1" parent="1" source="vww5mRkP5KJjSzzlBmqT-31" target="vww5mRkP5KJjSzzlBmqT-7">
          <mxGeometry width="50" height="50" relative="1" as="geometry">
            <mxPoint x="370" y="750" as="sourcePoint" />
            <mxPoint x="420" y="700" as="targetPoint" />
          </mxGeometry>
        </mxCell>
        <mxCell id="vww5mRkP5KJjSzzlBmqT-42" value="" style="endArrow=none;html=1;rounded=0;entryX=0;entryY=0.5;entryDx=0;entryDy=0;" edge="1" parent="1" source="vww5mRkP5KJjSzzlBmqT-1" target="vww5mRkP5KJjSzzlBmqT-21">
          <mxGeometry width="50" height="50" relative="1" as="geometry">
            <mxPoint x="370" y="240" as="sourcePoint" />
            <mxPoint x="420" y="190" as="targetPoint" />
          </mxGeometry>
        </mxCell>
        <mxCell id="vww5mRkP5KJjSzzlBmqT-43" value="" style="endArrow=classic;html=1;rounded=0;entryX=0.638;entryY=-0.023;entryDx=0;entryDy=0;dashed=1;exitX=1;exitY=1;exitDx=0;exitDy=0;entryPerimeter=0;" edge="1" parent="1" source="vww5mRkP5KJjSzzlBmqT-29" target="vww5mRkP5KJjSzzlBmqT-13">
          <mxGeometry width="50" height="50" relative="1" as="geometry">
            <mxPoint x="507" y="280" as="sourcePoint" />
            <mxPoint x="438" y="383" as="targetPoint" />
          </mxGeometry>
        </mxCell>
        <mxCell id="vww5mRkP5KJjSzzlBmqT-44" value="" style="endArrow=classic;html=1;rounded=0;dashed=1;exitX=0.744;exitY=0.913;exitDx=0;exitDy=0;exitPerimeter=0;" edge="1" parent="1" source="vww5mRkP5KJjSzzlBmqT-30" target="vww5mRkP5KJjSzzlBmqT-13">
          <mxGeometry width="50" height="50" relative="1" as="geometry">
            <mxPoint x="554" y="378" as="sourcePoint" />
            <mxPoint x="485" y="481" as="targetPoint" />
          </mxGeometry>
        </mxCell>
        <mxCell id="vww5mRkP5KJjSzzlBmqT-45" value="&amp;lt;&amp;lt;include&amp;gt;&amp;gt;" style="text;strokeColor=none;fillColor=none;align=left;verticalAlign=middle;spacingLeft=4;spacingRight=4;overflow=hidden;points=[[0,0.5],[1,0.5]];portConstraint=eastwest;rotatable=0;whiteSpace=wrap;html=1;" vertex="1" parent="1">
          <mxGeometry x="570" y="200" width="80" height="30" as="geometry" />
        </mxCell>
        <mxCell id="vww5mRkP5KJjSzzlBmqT-46" value="&amp;lt;&amp;lt;include&amp;gt;&amp;gt;" style="text;strokeColor=none;fillColor=none;align=left;verticalAlign=middle;spacingLeft=4;spacingRight=4;overflow=hidden;points=[[0,0.5],[1,0.5]];portConstraint=eastwest;rotatable=0;whiteSpace=wrap;html=1;" vertex="1" parent="1">
          <mxGeometry x="460" y="290" width="80" height="30" as="geometry" />
        </mxCell>
        <mxCell id="vww5mRkP5KJjSzzlBmqT-47" value="SI PERKAKAS PINTER" style="shape=umlFrame;whiteSpace=wrap;html=1;pointerEvents=0;fillColor=#C491E6;width=160;height=30;" vertex="1" parent="1">
          <mxGeometry x="180" width="480" height="610" as="geometry" />
        </mxCell>
        <mxCell id="vww5mRkP5KJjSzzlBmqT-48" value="menghubungi&lt;div&gt;operator untuk&amp;nbsp;&lt;/div&gt;&lt;div&gt;pembelian&lt;/div&gt;" style="ellipse;whiteSpace=wrap;html=1;" vertex="1" parent="1">
          <mxGeometry x="346.25" y="540" width="127.5" height="50" as="geometry" />
        </mxCell>
        <mxCell id="vww5mRkP5KJjSzzlBmqT-50" value="" style="endArrow=none;html=1;rounded=0;" edge="1" parent="1" target="vww5mRkP5KJjSzzlBmqT-48">
          <mxGeometry width="50" height="50" relative="1" as="geometry">
            <mxPoint x="120" y="450" as="sourcePoint" />
            <mxPoint x="400" y="190" as="targetPoint" />
          </mxGeometry>
        </mxCell>
        <mxCell id="vww5mRkP5KJjSzzlBmqT-52" value="tambah jenis, ubah data, hapus data, tambah/kuang stok bibit" style="ellipse;whiteSpace=wrap;html=1;" vertex="1" parent="1">
          <mxGeometry x="250" y="140" width="190" height="50" as="geometry" />
        </mxCell>
        <mxCell id="vww5mRkP5KJjSzzlBmqT-53" value="" style="endArrow=classic;html=1;rounded=0;entryX=0.294;entryY=0.954;entryDx=0;entryDy=0;entryPerimeter=0;dashed=1;" edge="1" parent="1" source="vww5mRkP5KJjSzzlBmqT-23" target="vww5mRkP5KJjSzzlBmqT-52">
          <mxGeometry width="50" height="50" relative="1" as="geometry">
            <mxPoint x="350" y="280" as="sourcePoint" />
            <mxPoint x="400" y="230" as="targetPoint" />
          </mxGeometry>
        </mxCell>
        <mxCell id="vww5mRkP5KJjSzzlBmqT-54" value="&amp;lt;&amp;lt;extend&amp;gt;&amp;gt;" style="text;strokeColor=none;fillColor=none;align=left;verticalAlign=middle;spacingLeft=4;spacingRight=4;overflow=hidden;points=[[0,0.5],[1,0.5]];portConstraint=eastwest;rotatable=0;whiteSpace=wrap;html=1;" vertex="1" parent="1">
          <mxGeometry x="229" y="195" width="80" height="30" as="geometry" />
        </mxCell>
      </root>
    </mxGraphModel>
  </diagram>
</mxfile>
